<mxfile host="Electron" modified="2024-02-08T01:19:39.046Z" agent="Mozilla/5.0 (Windows NT 10.0; Win64; x64) AppleWebKit/537.36 (KHTML, like Gecko) draw.io/23.0.2 Chrome/120.0.6099.109 Electron/28.1.0 Safari/537.36" etag="IxjVyEEJk-lLgtQDGi52" version="23.0.2" type="device">
  <diagram name="Page-1" id="ja49I31db52JSxWJJxev">
    <mxGraphModel dx="1834" dy="1236" grid="0" gridSize="10" guides="0" tooltips="1" connect="0" arrows="0" fold="1" page="0" pageScale="1" pageWidth="1100" pageHeight="850" background="none" math="0" shadow="1">
      <root>
        <mxCell id="0" />
        <mxCell id="1" parent="0" />
        <mxCell id="9_yundcjcufTjwk7wA7y-1" value="" style="group;movable=0;resizable=0;rotatable=0;deletable=0;editable=0;locked=1;connectable=0;" vertex="1" connectable="0" parent="1">
          <mxGeometry width="480" height="480" as="geometry" />
        </mxCell>
        <mxCell id="zBknXudiURap7mkD7rTB-1" value="" style="ellipse;whiteSpace=wrap;html=1;aspect=fixed;shadow=0;rounded=0;labelBackgroundColor=none;sketch=1;curveFitting=1;jiggle=2;fillColor=#660033;strokeColor=#003366;fontColor=#E4FDE1;container=0;fillStyle=cross-hatch;movable=1;resizable=1;rotatable=1;deletable=1;editable=1;locked=0;connectable=1;strokeWidth=5;" parent="9_yundcjcufTjwk7wA7y-1" vertex="1">
          <mxGeometry width="80" height="80" as="geometry" />
        </mxCell>
        <mxCell id="zBknXudiURap7mkD7rTB-2" value="" style="ellipse;whiteSpace=wrap;html=1;aspect=fixed;shadow=0;rounded=0;labelBackgroundColor=none;sketch=1;curveFitting=1;jiggle=2;fillColor=#660033;strokeColor=#003366;fontColor=#E4FDE1;container=0;fillStyle=cross-hatch;movable=1;resizable=1;rotatable=1;deletable=1;editable=1;locked=0;connectable=1;strokeWidth=5;" parent="9_yundcjcufTjwk7wA7y-1" vertex="1">
          <mxGeometry x="400" width="80" height="80" as="geometry" />
        </mxCell>
        <mxCell id="zBknXudiURap7mkD7rTB-3" value="" style="ellipse;whiteSpace=wrap;html=1;aspect=fixed;shadow=0;rounded=0;labelBackgroundColor=none;sketch=1;curveFitting=1;jiggle=2;fillColor=#660033;strokeColor=#003366;fontColor=#E4FDE1;container=0;fillStyle=cross-hatch;movable=1;resizable=1;rotatable=1;deletable=1;editable=1;locked=0;connectable=1;strokeWidth=5;" parent="9_yundcjcufTjwk7wA7y-1" vertex="1">
          <mxGeometry y="400" width="80" height="80" as="geometry" />
        </mxCell>
        <mxCell id="zBknXudiURap7mkD7rTB-4" value="" style="ellipse;whiteSpace=wrap;html=1;aspect=fixed;shadow=0;rounded=0;labelBackgroundColor=none;sketch=1;curveFitting=1;jiggle=2;fillColor=#660033;strokeColor=#003366;fontColor=#E4FDE1;container=0;fillStyle=cross-hatch;movable=1;resizable=1;rotatable=1;deletable=1;editable=1;locked=0;connectable=1;strokeWidth=5;" parent="9_yundcjcufTjwk7wA7y-1" vertex="1">
          <mxGeometry x="400" y="400" width="80" height="80" as="geometry" />
        </mxCell>
        <mxCell id="zBknXudiURap7mkD7rTB-5" value="" style="ellipse;whiteSpace=wrap;html=1;aspect=fixed;shadow=0;rounded=0;labelBackgroundColor=none;sketch=1;curveFitting=1;jiggle=2;fillColor=#660033;strokeColor=#003366;fontColor=#E4FDE1;container=0;fillStyle=cross-hatch;movable=1;resizable=1;rotatable=1;deletable=1;editable=1;locked=0;connectable=1;strokeWidth=5;" parent="9_yundcjcufTjwk7wA7y-1" vertex="1">
          <mxGeometry x="200" y="40" width="80" height="80" as="geometry" />
        </mxCell>
        <mxCell id="zBknXudiURap7mkD7rTB-6" value="" style="ellipse;whiteSpace=wrap;html=1;aspect=fixed;shadow=0;rounded=0;labelBackgroundColor=none;sketch=1;curveFitting=1;jiggle=2;fillColor=#660033;strokeColor=#003366;fontColor=#E4FDE1;container=0;fillStyle=cross-hatch;movable=1;resizable=1;rotatable=1;deletable=1;editable=1;locked=0;connectable=1;strokeWidth=5;" parent="9_yundcjcufTjwk7wA7y-1" vertex="1">
          <mxGeometry x="40" y="200" width="80" height="80" as="geometry" />
        </mxCell>
        <mxCell id="zBknXudiURap7mkD7rTB-7" value="" style="ellipse;whiteSpace=wrap;html=1;aspect=fixed;shadow=0;rounded=0;labelBackgroundColor=none;sketch=1;curveFitting=1;jiggle=2;fillColor=#660033;strokeColor=#003366;fontColor=#E4FDE1;container=0;fillStyle=cross-hatch;movable=1;resizable=1;rotatable=1;deletable=1;editable=1;locked=0;connectable=1;strokeWidth=5;" parent="9_yundcjcufTjwk7wA7y-1" vertex="1">
          <mxGeometry x="200" y="360" width="80" height="80" as="geometry" />
        </mxCell>
        <mxCell id="zBknXudiURap7mkD7rTB-8" value="" style="ellipse;whiteSpace=wrap;html=1;aspect=fixed;shadow=0;rounded=0;labelBackgroundColor=none;sketch=1;curveFitting=1;jiggle=2;fillColor=#660033;strokeColor=#003366;fontColor=#E4FDE1;container=0;fillStyle=cross-hatch;movable=1;resizable=1;rotatable=1;deletable=1;editable=1;locked=0;connectable=1;strokeWidth=5;" parent="9_yundcjcufTjwk7wA7y-1" vertex="1">
          <mxGeometry x="360" y="200" width="80" height="80" as="geometry" />
        </mxCell>
        <mxCell id="zBknXudiURap7mkD7rTB-9" value="" style="ellipse;whiteSpace=wrap;html=1;aspect=fixed;fillStyle=cross-hatch;shadow=0;rounded=0;labelBackgroundColor=none;sketch=1;curveFitting=1;jiggle=2;fillColor=#660033;strokeColor=#003366;fontColor=#E4FDE1;container=0;movable=1;resizable=1;rotatable=1;deletable=1;editable=1;locked=0;connectable=1;strokeWidth=5;" parent="9_yundcjcufTjwk7wA7y-1" vertex="1">
          <mxGeometry x="180" y="180" width="120" height="120" as="geometry" />
        </mxCell>
        <mxCell id="zBknXudiURap7mkD7rTB-11" value="" style="shape=link;endArrow=classic;startArrow=classic;html=1;rounded=0;endWidth=0;shadow=0;width=10;labelBackgroundColor=none;fontColor=default;sketch=1;curveFitting=1;jiggle=2;strokeColor=#003366;movable=1;resizable=1;rotatable=1;deletable=1;editable=1;locked=0;connectable=1;strokeWidth=5;" parent="9_yundcjcufTjwk7wA7y-1" source="zBknXudiURap7mkD7rTB-9" target="zBknXudiURap7mkD7rTB-1" edge="1">
          <mxGeometry width="100" height="100" relative="1" as="geometry">
            <mxPoint x="490" y="410" as="sourcePoint" />
            <mxPoint x="590" y="310" as="targetPoint" />
          </mxGeometry>
        </mxCell>
        <mxCell id="zBknXudiURap7mkD7rTB-12" value="" style="shape=link;endArrow=classic;startArrow=classic;html=1;rounded=0;endWidth=0;shadow=0;width=10;labelBackgroundColor=none;fontColor=default;sketch=1;curveFitting=1;jiggle=2;strokeColor=#003366;movable=1;resizable=1;rotatable=1;deletable=1;editable=1;locked=0;connectable=1;strokeWidth=5;" parent="9_yundcjcufTjwk7wA7y-1" source="zBknXudiURap7mkD7rTB-9" target="zBknXudiURap7mkD7rTB-5" edge="1">
          <mxGeometry width="100" height="100" relative="1" as="geometry">
            <mxPoint x="528" y="328" as="sourcePoint" />
            <mxPoint x="398" y="198" as="targetPoint" />
          </mxGeometry>
        </mxCell>
        <mxCell id="zBknXudiURap7mkD7rTB-13" value="" style="shape=link;endArrow=classic;startArrow=classic;html=1;rounded=0;endWidth=0;shadow=0;width=10;labelBackgroundColor=none;fontColor=default;sketch=1;curveFitting=1;jiggle=2;strokeColor=#003366;movable=1;resizable=1;rotatable=1;deletable=1;editable=1;locked=0;connectable=1;strokeWidth=5;" parent="9_yundcjcufTjwk7wA7y-1" source="zBknXudiURap7mkD7rTB-9" target="zBknXudiURap7mkD7rTB-2" edge="1">
          <mxGeometry width="100" height="100" relative="1" as="geometry">
            <mxPoint x="538" y="338" as="sourcePoint" />
            <mxPoint x="408" y="208" as="targetPoint" />
          </mxGeometry>
        </mxCell>
        <mxCell id="zBknXudiURap7mkD7rTB-14" value="" style="shape=link;endArrow=classic;startArrow=classic;html=1;rounded=0;endWidth=0;shadow=0;width=10;labelBackgroundColor=none;fontColor=default;sketch=1;curveFitting=1;jiggle=2;strokeColor=#003366;movable=1;resizable=1;rotatable=1;deletable=1;editable=1;locked=0;connectable=1;strokeWidth=5;" parent="9_yundcjcufTjwk7wA7y-1" source="zBknXudiURap7mkD7rTB-7" target="zBknXudiURap7mkD7rTB-9" edge="1">
          <mxGeometry width="100" height="100" relative="1" as="geometry">
            <mxPoint x="548" y="348" as="sourcePoint" />
            <mxPoint x="418" y="218" as="targetPoint" />
          </mxGeometry>
        </mxCell>
        <mxCell id="zBknXudiURap7mkD7rTB-15" value="" style="shape=link;endArrow=classic;startArrow=classic;html=1;rounded=0;endWidth=0;shadow=0;width=10;labelBackgroundColor=none;fontColor=default;sketch=1;curveFitting=1;jiggle=2;strokeColor=#003366;movable=1;resizable=1;rotatable=1;deletable=1;editable=1;locked=0;connectable=1;strokeWidth=5;" parent="9_yundcjcufTjwk7wA7y-1" source="zBknXudiURap7mkD7rTB-9" target="zBknXudiURap7mkD7rTB-6" edge="1">
          <mxGeometry width="100" height="100" relative="1" as="geometry">
            <mxPoint x="558" y="358" as="sourcePoint" />
            <mxPoint x="428" y="228" as="targetPoint" />
          </mxGeometry>
        </mxCell>
        <mxCell id="zBknXudiURap7mkD7rTB-16" value="" style="shape=link;endArrow=classic;startArrow=classic;html=1;rounded=0;endWidth=0;entryX=1;entryY=0;entryDx=0;entryDy=0;shadow=0;width=10;labelBackgroundColor=none;fontColor=default;sketch=1;curveFitting=1;jiggle=2;strokeColor=#003366;movable=1;resizable=1;rotatable=1;deletable=1;editable=1;locked=0;connectable=1;strokeWidth=5;" parent="9_yundcjcufTjwk7wA7y-1" source="zBknXudiURap7mkD7rTB-9" target="zBknXudiURap7mkD7rTB-3" edge="1">
          <mxGeometry width="100" height="100" relative="1" as="geometry">
            <mxPoint x="568" y="368" as="sourcePoint" />
            <mxPoint x="438" y="238" as="targetPoint" />
          </mxGeometry>
        </mxCell>
        <mxCell id="zBknXudiURap7mkD7rTB-17" value="" style="shape=link;endArrow=classic;startArrow=classic;html=1;rounded=0;endWidth=0;shadow=0;width=10;labelBackgroundColor=none;fontColor=default;sketch=1;curveFitting=1;jiggle=2;strokeColor=#003366;movable=1;resizable=1;rotatable=1;deletable=1;editable=1;locked=0;connectable=1;strokeWidth=5;" parent="9_yundcjcufTjwk7wA7y-1" source="zBknXudiURap7mkD7rTB-4" target="zBknXudiURap7mkD7rTB-9" edge="1">
          <mxGeometry width="100" height="100" relative="1" as="geometry">
            <mxPoint x="578" y="378" as="sourcePoint" />
            <mxPoint x="448" y="248" as="targetPoint" />
          </mxGeometry>
        </mxCell>
        <mxCell id="zBknXudiURap7mkD7rTB-18" value="" style="shape=link;endArrow=classic;startArrow=classic;html=1;rounded=0;endWidth=0;shadow=0;width=10;labelBackgroundColor=none;fontColor=default;sketch=1;curveFitting=1;jiggle=2;strokeColor=#003366;movable=1;resizable=1;rotatable=1;deletable=1;editable=1;locked=0;connectable=1;strokeWidth=5;" parent="9_yundcjcufTjwk7wA7y-1" source="zBknXudiURap7mkD7rTB-8" target="zBknXudiURap7mkD7rTB-9" edge="1">
          <mxGeometry width="100" height="100" relative="1" as="geometry">
            <mxPoint x="588" y="388" as="sourcePoint" />
            <mxPoint x="458" y="258" as="targetPoint" />
          </mxGeometry>
        </mxCell>
      </root>
    </mxGraphModel>
  </diagram>
</mxfile>
